<svg xmlns="http://www.w3.org/2000/svg" version="1.1" xmlns:xlink="http://www.w3.org/1999/xlink" xmlns:svgjs="http://svgjs.com/svgjs" width="332" height="332"><svg width="332" height="332" viewBox="0 0 332 332" fill="none" xmlns="http://www.w3.org/2000/svg">
<path d="M67.125 230V102H117.625C127.292 102 135.542 103.729 142.375 107.187C149.25 110.604 154.479 115.458 158.062 121.75C161.688 128 163.5 135.354 163.5 143.812C163.5 152.312 161.667 159.625 158 165.75C154.333 171.833 149.021 176.5 142.063 179.75C135.146 183 126.771 184.625 116.938 184.625H83.125V162.875H112.563C117.729 162.875 122.021 162.167 125.438 160.75C128.854 159.333 131.396 157.208 133.063 154.375C134.771 151.542 135.625 148.021 135.625 143.812C135.625 139.562 134.771 135.979 133.063 133.062C131.396 130.146 128.833 127.937 125.375 126.437C121.958 124.896 117.646 124.125 112.438 124.125H94.1875V230H67.125ZM136.25 171.75L168.062 230H138.188L107.063 171.75H136.25ZM224.328 231.875C214.453 231.875 205.953 229.875 198.828 225.875C191.745 221.833 186.286 216.125 182.453 208.75C178.62 201.333 176.703 192.562 176.703 182.437C176.703 172.562 178.62 163.896 182.453 156.438C186.286 148.979 191.682 143.167 198.641 139C205.641 134.833 213.849 132.75 223.266 132.75C229.599 132.75 235.495 133.771 240.953 135.812C246.453 137.812 251.245 140.833 255.328 144.875C259.453 148.917 262.661 154 264.953 160.125C267.245 166.208 268.391 173.333 268.391 181.5V188.812H187.328V172.312H243.328C243.328 168.479 242.495 165.083 240.828 162.125C239.161 159.167 236.849 156.854 233.891 155.187C230.974 153.479 227.578 152.625 223.703 152.625C219.661 152.625 216.078 153.562 212.953 155.437C209.87 157.271 207.453 159.75 205.703 162.875C203.953 165.958 203.057 169.396 203.016 173.187V188.875C203.016 193.625 203.891 197.729 205.641 201.187C207.432 204.646 209.953 207.312 213.203 209.187C216.453 211.062 220.307 212 224.766 212C227.724 212 230.432 211.583 232.891 210.75C235.349 209.917 237.453 208.667 239.203 207C240.953 205.333 242.286 203.292 243.203 200.875L267.828 202.5C266.578 208.417 264.016 213.583 260.141 218C256.307 222.375 251.349 225.792 245.266 228.25C239.224 230.667 232.245 231.875 224.328 231.875Z" fill="black"></path>
<path d="M202 318L318 318L318 14L202 14" stroke="black" stroke-width="28"></path>
<path d="M130 14H14V318H130" stroke="black" stroke-width="28"></path>
</svg><style>@media (prefers-color-scheme: light) { :root { filter: none; } }
@media (prefers-color-scheme: dark) { :root { filter: invert(100%); } }
</style></svg>